<?xml version="1.0" encoding="utf-8"?>
<!-- Generator: Adobe Illustrator 24.0.1, SVG Export Plug-In . SVG Version: 6.00 Build 0)  -->
<svg version="1.1" xmlns="http://www.w3.org/2000/svg" xmlns:xlink="http://www.w3.org/1999/xlink" x="0px" y="0px"
	 viewBox="0 0 1440 780" style="enable-background:new 0 0 1440 780;" xml:space="preserve">
<style type="text/css">
	.st0{display:none;}
	.st1{display:inline;fill:#EED202;}
	.st2{fill:#19587E;}
	.st3{display:inline;}
	.st4{display:none;opacity:0.19;}
	.st5{display:none;fill:none;stroke:#000000;stroke-width:0.5;stroke-miterlimit:10;}
	.st6{opacity:0.5;}
	.st7{display:inline;fill:none;stroke:#000000;stroke-width:14;stroke-miterlimit:10;}
</style>
<g id="Layer_1" class="st0">
</g>
<g id="RefText">
	<g class="st4">
		<path class="st3" d="M1124.01,379.8c-1-18.8-2.2-41.4-2-58.2h-0.6c-4.6,15.8-10.2,32.6-17,51.2l-23.8,65.4h-13.2l-21.8-64.2
			c-6.4-19-11.8-36.4-15.6-52.4h-0.4c-0.4,16.8-1.4,39.4-2.6,59.6l-3.6,57.8h-16.6l9.4-134.8h22.2l23,65.2
			c5.6,16.6,10.2,31.4,13.6,45.4h0.6c3.4-13.6,8.2-28.4,14.2-45.4l24-65.2h22.2l8.4,134.8h-17L1124.01,379.8z"/>
		<path class="st3" d="M1201.21,439v-57.2l-42.6-77.6h19.8l19,37.2c5.2,10.2,9.2,18.4,13.4,27.8h0.4c3.8-8.8,8.4-17.6,13.6-27.8
			l19.4-37.2h19.8l-45.2,77.4V439H1201.21z"/>
		<path class="st3" d="M1391.61,375.8h-52.4v48.6h58.4V439h-75.8V304.2h72.8v14.6h-55.4v42.6h52.4V375.8z"/>
		<path class="st3" d="M1484.81,424h-0.4c-5.2,9.6-16,17.2-31.6,17.2c-22.6,0-41-19.6-41-49c0-36.2,23.4-52.2,43.8-52.2
			c15,0,25,7.4,29.8,16.8h0.4l0.6-14.6h16.6c-0.4,8.2-0.6,16.6-0.6,26.6v109.8h-17.6V424z M1484.81,381.4c0-2.4-0.2-5.2-0.8-7.4
			c-2.6-10.8-12-20-25.2-20c-18.2,0-29.2,15.4-29.2,37.2c0,19.2,9.2,36,28.6,36c11.4,0,21.2-7,25.2-19.2c0.8-2.4,1.4-5.8,1.4-8.4
			V381.4z"/>
	</g>
	<g>
		<path d="M638,192h-25.14l-4.66-107.67L587.73,192h-23.91l26.89-128.85h37.79l3.96,90.26l43.95-90.26h38.23L687.66,192h-24.17
			l25.4-106.88L638,192z"/>
		<path d="M706.47,228.04l0.97-14.94c3.28,0.94,6.47,1.41,9.58,1.41c3.22,0,5.83-0.73,7.82-2.2c2.58-1.93,5.39-5.57,8.44-10.9
			l5.1-9.14l-15.56-93.6h15.64l7.03,47.2c1.41,9.32,2.61,18.63,3.6,27.95l41.75-75.15h16.61l-59.5,105.73
			c-5.74,10.31-10.84,17.14-15.29,20.48c-4.45,3.34-9.58,5.01-15.38,5.01C713.59,229.88,709.99,229.27,706.47,228.04z"/>
	</g>
	<g>
		<path d="M508.61,456l26.89-128.85h95.54l-4.48,21.53h-68.99l-6.15,29.27h66.71l-4.48,21.53h-66.71l-8.09,34.98h74.97L609.25,456
			H508.61z"/>
		<path d="M687.56,445.45c-9.08,8.44-17.78,12.66-26.1,12.66c-8.67,0-16-3.3-21.97-9.89s-8.96-15.95-8.96-28.08
			c0-11.6,2.27-22.09,6.81-31.46c4.54-9.37,10.34-16.41,17.4-21.09c7.06-4.69,14.34-7.03,21.84-7.03c5.68,0,10.85,1.6,15.51,4.79
			c4.66,3.19,8.42,8.01,11.29,14.46l3.6-17.14h13.71L693.8,491.77h-15.91L687.56,445.45z M646.25,418.03c0,9.2,1.9,16.01,5.71,20.43
			c3.81,4.42,8.55,6.64,14.24,6.64c4.8,0,9.65-1.99,14.55-5.98c4.89-3.98,8.91-9.96,12.04-17.93c3.13-7.97,4.7-15.67,4.7-23.12
			c0-7.62-1.96-13.59-5.89-17.93c-3.93-4.34-8.73-6.5-14.41-6.5c-5.57,0-10.43,1.82-14.59,5.45c-5.45,4.69-9.73,11.46-12.83,20.3
			C647.42,406.2,646.25,412.41,646.25,418.03z"/>
		<path d="M791.09,439.13c-11.19,12.66-22.65,18.98-34.37,18.98c-7.21,0-13.02-2.07-17.45-6.2c-4.42-4.13-6.64-9.18-6.64-15.16
			c0-3.92,1-10.66,2.99-20.21l11.25-53.88h15.91l-12.48,59.68c-1.05,4.98-1.58,8.85-1.58,11.6c0,3.52,1.07,6.26,3.21,8.22
			c2.14,1.96,5.29,2.94,9.45,2.94c4.45,0,8.8-1.08,13.05-3.25c4.25-2.17,7.91-5.1,10.99-8.79s5.58-8.06,7.51-13.1
			c1.29-3.22,2.78-8.88,4.48-16.96l8.44-40.34h15.91L802.26,456h-14.68L791.09,439.13z"/>
		<path d="M826.87,456l19.51-93.34h15.91L842.77,456H826.87z M850.07,345.17l3.78-18.02h15.82l-3.78,18.02H850.07z"/>
		<path d="M859.65,491.77l26.98-129.11h14.68l-2.72,13.01c5.45-5.68,10.33-9.62,14.63-11.82s8.86-3.3,13.67-3.3
			c8.91,0,16.29,3.24,22.15,9.71c5.86,6.48,8.79,15.75,8.79,27.82c0,9.73-1.61,18.59-4.83,26.59c-3.22,8-7.18,14.43-11.87,19.29
			c-4.69,4.86-9.43,8.44-14.24,10.72c-4.81,2.29-9.73,3.43-14.77,3.43c-11.19,0-19.86-5.68-26.02-17.05l-10.55,50.71H859.65z
			 M891.11,417.86c0,6.97,0.5,11.81,1.49,14.5c1.46,3.81,3.87,6.89,7.21,9.23c3.34,2.34,7.21,3.52,11.6,3.52
			c9.14,0,16.52-5.14,22.15-15.42s8.44-20.79,8.44-31.51c0-7.91-1.89-14.02-5.67-18.33s-8.48-6.46-14.11-6.46
			c-4.04,0-7.79,1.07-11.25,3.21c-3.46,2.14-6.67,5.33-9.62,9.58c-2.96,4.25-5.41,9.45-7.34,15.6S891.11,413.29,891.11,417.86z"/>
		<path d="M967.49,456L987,362.66h15.91l-3.25,15.38c5.92-6.62,11.21-11.19,15.86-13.71c4.66-2.52,9.71-3.78,15.16-3.78
			c5.8,0,10.65,1.54,14.55,4.61c3.9,3.08,6.46,7.37,7.69,12.88c4.75-5.86,9.74-10.24,14.99-13.14c5.24-2.9,10.77-4.35,16.57-4.35
			c7.79,0,13.64,1.85,17.53,5.54c3.9,3.69,5.84,8.88,5.84,15.56c0,2.87-0.67,7.62-2.02,14.24L1093.26,456h-15.91l12.83-61.7
			c1.11-5.04,1.67-8.64,1.67-10.81c0-3.05-0.97-5.45-2.9-7.21s-4.66-2.64-8.17-2.64c-4.75,0-9.58,1.44-14.5,4.31
			c-4.92,2.87-8.75,6.64-11.47,11.29s-5.11,11.82-7.16,21.49l-9.49,45.26h-15.91l13.18-63.02c0.94-4.28,1.41-7.32,1.41-9.14
			c0-3.05-0.95-5.51-2.86-7.38c-1.9-1.87-4.38-2.81-7.43-2.81c-4.51,0-9.24,1.44-14.19,4.31c-4.95,2.87-8.98,6.87-12.08,12
			c-3.11,5.13-5.66,12.44-7.65,21.93L983.4,456H967.49z"/>
		<path d="M1186.08,424.27l15.47,1.58c-2.23,7.68-7.34,14.97-15.34,21.88c-8,6.91-17.53,10.37-28.61,10.37
			c-6.91,0-13.26-1.6-19.03-4.79c-5.77-3.19-10.17-7.84-13.18-13.93c-3.02-6.09-4.53-13.04-4.53-20.83c0-10.2,2.36-20.08,7.08-29.66
			c4.72-9.58,10.82-16.7,18.33-21.36c7.5-4.66,15.61-6.99,24.35-6.99c11.13,0,20.02,3.46,26.67,10.37
			c6.65,6.91,9.98,16.35,9.98,28.3c0,4.57-0.41,9.26-1.23,14.06h-68.73c-0.23,1.82-0.35,3.46-0.35,4.92c0,8.73,2.01,15.4,6.02,20
			c4.01,4.6,8.92,6.9,14.72,6.9c5.45,0,10.81-1.79,16.08-5.36C1179.04,436.17,1183.14,431.01,1186.08,424.27z M1139.84,401.16h52.38
			c0.06-1.64,0.09-2.81,0.09-3.52c0-7.97-1.99-14.08-5.98-18.33c-3.99-4.25-9.11-6.37-15.38-6.37c-6.8,0-12.99,2.34-18.59,7.03
			C1146.77,384.66,1142.6,391.72,1139.84,401.16z"/>
		<path d="M1217.63,456l19.51-93.34h14.41l-3.43,16.26c6.27-6.39,12.13-11.04,17.58-13.97c5.45-2.93,11.02-4.39,16.7-4.39
			c7.56,0,13.49,2.05,17.8,6.15c4.31,4.1,6.46,9.58,6.46,16.44c0,3.46-0.76,8.91-2.29,16.35L1292.51,456h-15.91l12.39-59.15
			c1.23-5.74,1.85-9.99,1.85-12.74c0-3.1-1.07-5.63-3.21-7.56c-2.14-1.93-5.23-2.9-9.27-2.9c-8.15,0-15.4,2.93-21.75,8.79
			c-6.36,5.86-11.03,15.91-14.02,30.15l-9.05,43.42H1217.63z"/>
		<path d="M1354.91,443.08l-2.64,13.01c-3.81,1-7.5,1.49-11.07,1.49c-6.33,0-11.37-1.55-15.12-4.66c-2.81-2.34-4.22-5.54-4.22-9.58
			c0-2.05,0.76-6.77,2.29-14.15l11.34-54.23h-12.57l2.55-12.3h12.57l4.83-22.94l18.19-10.99l-7.12,33.93h15.64l-2.64,12.3h-15.56
			l-10.81,51.59c-1.35,6.56-2.02,10.49-2.02,11.78c0,1.88,0.54,3.31,1.63,4.31c1.08,1,2.86,1.49,5.32,1.49
			C1349.02,444.13,1352.16,443.78,1354.91,443.08z"/>
	</g>
	<g>
		<path d="M454.57,719l26.98-128.85H508l-22.41,107.31h65.57L546.68,719H454.57z"/>
		<path d="M561.79,719l19.51-93.34h15.91L577.7,719H561.79z M585,608.17l3.78-18.02h15.82l-3.78,18.02H585z"/>
		<path d="M602.4,719l26.89-128.85h15.91l-9.58,46.05c5.04-4.63,9.61-7.9,13.71-9.8c4.1-1.9,8.38-2.86,12.83-2.86
			c8.73,0,16.01,3.25,21.84,9.76c5.83,6.5,8.75,15.97,8.75,28.39c0,8.26-1.17,15.82-3.52,22.68c-2.34,6.86-5.24,12.61-8.7,17.27
			c-3.46,4.66-7.03,8.38-10.72,11.16c-3.69,2.78-7.47,4.86-11.34,6.24s-7.59,2.07-11.16,2.07c-6.15,0-11.57-1.63-16.26-4.88
			c-4.69-3.25-8.35-8.22-10.99-14.9L616.37,719H602.4z M625.95,680.68l-0.09,2.99c0,7.97,1.9,14.03,5.71,18.19
			c3.81,4.16,8.55,6.24,14.24,6.24c5.57,0,10.68-1.95,15.34-5.84c4.66-3.9,8.48-9.98,11.47-18.24s4.48-15.88,4.48-22.85
			c0-7.85-1.89-13.94-5.67-18.28c-3.78-4.34-8.45-6.5-14.02-6.5c-5.74,0-11.02,2.21-15.82,6.64c-4.81,4.42-8.82,11.24-12.04,20.43
			C627.15,670.31,625.95,676.05,625.95,680.68z"/>
		<path d="M702.51,719l19.51-93.34h14.06l-3.96,19.07c4.8-7.21,9.51-12.54,14.11-16c4.6-3.46,9.3-5.19,14.11-5.19
			c3.16,0,7.06,1.14,11.69,3.43l-6.5,14.77c-2.75-1.99-5.77-2.99-9.05-2.99c-5.57,0-11.28,3.11-17.14,9.32
			c-5.86,6.21-10.46,17.37-13.8,33.49L717.62,719H702.51z"/>
		<path d="M825.38,707.4c-5.51,4.75-10.81,8.22-15.91,10.42s-10.55,3.3-16.35,3.3c-8.61,0-15.56-2.53-20.83-7.6
			c-5.27-5.07-7.91-11.56-7.91-19.47c0-5.21,1.19-9.83,3.56-13.84c2.37-4.01,5.52-7.24,9.45-9.67c3.92-2.43,8.73-4.17,14.41-5.23
			c3.57-0.7,10.36-1.26,20.35-1.67c9.99-0.41,17.15-1.46,21.49-3.16c1.23-4.34,1.85-7.94,1.85-10.81c0-3.69-1.35-6.59-4.04-8.7
			c-3.69-2.93-9.08-4.39-16.17-4.39c-6.68,0-12.14,1.48-16.39,4.44c-4.25,2.96-7.34,7.16-9.27,12.61l-16.08-1.41
			c3.28-9.26,8.48-16.35,15.6-21.27s16.1-7.38,26.94-7.38c11.54,0,20.68,2.75,27.42,8.26c5.16,4.1,7.73,9.43,7.73,16
			c0,4.98-0.73,10.75-2.2,17.31l-5.19,23.2c-1.64,7.38-2.46,13.39-2.46,18.02c0,2.93,0.64,7.15,1.93,12.66h-16.08
			C826.34,715.95,825.73,712.09,825.38,707.4z M831.27,671.71c-2.23,0.88-4.61,1.55-7.16,2.02c-2.55,0.47-6.81,0.97-12.79,1.49
			c-9.26,0.82-15.79,1.86-19.6,3.12c-3.81,1.26-6.68,3.27-8.61,6.02c-1.93,2.75-2.9,5.8-2.9,9.14c0,4.45,1.54,8.12,4.61,10.99
			c3.08,2.87,7.46,4.31,13.14,4.31c5.27,0,10.34-1.39,15.21-4.17c4.86-2.78,8.7-6.66,11.51-11.65
			C827.49,688,829.68,680.91,831.27,671.71z"/>
		<path d="M862.55,719l19.51-93.34h14.06l-3.96,19.07c4.8-7.21,9.51-12.54,14.11-16c4.6-3.46,9.3-5.19,14.11-5.19
			c3.16,0,7.06,1.14,11.69,3.43l-6.5,14.77c-2.75-1.99-5.77-2.99-9.05-2.99c-5.57,0-11.28,3.11-17.14,9.32
			c-5.86,6.21-10.46,17.37-13.8,33.49L877.67,719H862.55z"/>
		<path d="M916.52,755.04l0.97-14.94c3.28,0.94,6.47,1.41,9.58,1.41c3.22,0,5.83-0.73,7.82-2.2c2.58-1.93,5.39-5.57,8.44-10.9
			l5.1-9.14l-15.56-93.6h15.64l7.03,47.2c1.41,9.32,2.61,18.63,3.6,27.95l41.75-75.15h16.61L958,731.39
			c-5.74,10.31-10.84,17.14-15.29,20.48c-4.45,3.34-9.58,5.01-15.38,5.01C923.64,756.88,920.04,756.27,916.52,755.04z"/>
	</g>
	<g>
		<path d="M114.46,761l42.25-208H74.42v-73h97.11l35.97-177H74.42v-73h147.91l42.45-209h73.27l-42.47,209h154.05l42.59-209h73.23
			l-42.59,209h84.56v73h-99.45l-36.06,177h135.52v73H457.02l-42.39,208h-73.23l42.39-208H229.97l-42.27,208H114.46z M244.8,480
			h153.88l36.06-177H280.75L244.8,480z"/>
	</g>
	<line class="st5" x1="438.5" y1="794" x2="617.5" y2="-81"/>
	<g>
		<path d="M1002.75,746l6.35-30.45h-11.27l0.82-3.91h27.05l-0.82,3.91h-11.18l-6.35,30.45H1002.75z"/>
		<path d="M1023.28,746l7.17-34.36h5.65l3.47,22.27c0.45,2.92,0.75,5.73,0.89,8.41c0.95-2.31,2.55-5.45,4.78-9.4l12.05-21.28h5.74
			l-7.17,34.36h-4.52l3.59-16.71c0.83-3.86,2.02-8.19,3.56-12.98c-0.98,2.23-2.2,4.64-3.66,7.22l-12.8,22.48h-4.43l-3.45-22.03
			c-0.31-2.02-0.54-4.37-0.68-7.05c-0.39,3.02-0.77,5.41-1.15,7.17l-4.57,21.91H1023.28z"/>
	</g>
</g>
<g id="M" class="st0">
	<g class="st6">
		<path class="st3" d="M1012.94,443.31l7.97-39.03h-15.48v-13.65h18.23l6.78-33.26h-25.01v-13.65h27.76l7.97-39.3h13.74l-7.97,39.3
			h28.86l7.97-39.3h13.83l-7.97,39.3h15.85v13.65h-18.6l-6.87,33.26h25.47v13.65h-28.22l-7.97,39.03h-13.74l7.88-39.03h-28.77
			l-7.97,39.03H1012.94z M1037.4,390.63h28.77l6.87-33.26h-28.86L1037.4,390.63z"/>
	</g>
	<g class="st6">
		<path class="st3" d="M1068.94,443.31l7.97-39.03h-15.48v-13.65h18.23l6.78-33.26h-25.01v-13.65h27.76l7.97-39.3h13.74l-7.97,39.3
			h28.86l7.97-39.3h13.83l-7.97,39.3h15.85v13.65h-18.6l-6.87,33.26h25.47v13.65h-28.22l-7.97,39.03h-13.74l7.88-39.03h-28.77
			l-7.97,39.03H1068.94z M1093.4,390.63h28.77l6.87-33.26h-28.86L1093.4,390.63z"/>
	</g>
	<g class="st6">
		<path class="st3" d="M1150.61,473.46l12.67-37.77l-15.37-1.89l1.66-13.55l18.1,2.22l10.78-32.18l-24.83-3.05l1.66-13.55
			l27.55,3.38l12.7-38.04l13.64,1.67l-12.7,38.04l28.64,3.52l12.7-38.04l13.73,1.69l-12.7,38.04l15.73,1.93l-1.66,13.55l-18.46-2.27
			l-10.87,32.17l25.28,3.1l-1.66,13.55l-28.01-3.44l-12.67,37.77l-13.64-1.67l12.58-37.78l-28.55-3.51l-12.67,37.77L1150.61,473.46z
			 M1181.31,424.15l28.55,3.51l10.87-32.17l-28.64-3.52L1181.31,424.15z"/>
	</g>
	<g class="st6">
		<path class="st3" d="M1300.94,443.29l7.97-39.03h-15.48v-13.65h18.23l6.78-33.26h-25.01V343.7h27.76l7.97-39.3h13.74l-7.97,39.3
			h28.86l7.97-39.3h13.83l-7.97,39.3h15.85v13.65h-18.6l-6.87,33.26h25.47v13.65h-28.22l-7.97,39.03h-13.74l7.88-39.03h-28.77
			l-7.97,39.03H1300.94z M1325.4,390.61h28.77l6.87-33.26h-28.86L1325.4,390.61z"/>
	</g>
	<g class="st6">
		<path class="st3" d="M1327.94,443.29l7.97-39.03h-15.48v-13.65h18.23l6.78-33.26h-25.01V343.7h27.76l7.97-39.3h13.74l-7.97,39.3
			h28.86l7.97-39.3h13.83l-7.97,39.3h15.85v13.65h-18.6l-6.87,33.26h25.47v13.65h-28.22l-7.97,39.03h-13.74l7.88-39.03h-28.77
			l-7.97,39.03H1327.94z M1352.4,390.61h28.77l6.87-33.26h-28.86L1352.4,390.61z"/>
	</g>
	<polygon class="st3" points="1013.5,439 1041.5,305 1054.5,305 1078.5,420 1136.5,304 1153.5,304 1125.5,439 1112.5,439 
		1131.5,345 1083.5,439 1067.5,439 1047.5,345 1027.5,439 	"/>
	<polyline class="st3" points="1252.5,342 1206.5,479 1192.5,479 1206.5,434 1158.5,340 1173.5,340 1212.5,415 1238.5,342 	"/>
	<polyline class="st3" points="1329.5,304 1302.5,439 1385.5,439 1388.5,426 1318.5,426 1329.5,375 1397.5,376 1400.5,361 
		1332.5,360 1340.5,319 1409.5,319 1412.5,304 	"/>
</g>
<g id="Guildes">
</g>
</svg>
